<?xml version="1.0" encoding="iso-8859-1"?>
<!-- Generator: Adobe Illustrator 19.0.0, SVG Export Plug-In . SVG Version: 6.00 Build 0)  -->
<svg version="1.1" id="Capa_1" xmlns="http://www.w3.org/2000/svg" xmlns:xlink="http://www.w3.org/1999/xlink" x="0px" y="0px"
	 viewBox="0 0 512 512" style="enable-background:new 0 0 512 512;" xml:space="preserve">
<polygon style="fill:#DEF1FF;" points="358.93,7.501 358.93,504.5 504.5,358.93 504.5,153.071 "/>
<polygon style="fill:#FFFFFF;" points="484.5,153.071 484.5,358.93 358.93,504.5 153.07,504.5 7.5,358.93 7.5,153.071 153.07,7.501 
	358.93,7.501 "/>
<polygon style="fill:#E0230D;" points="342.36,47.501 342.36,464.5 464.5,342.36 464.5,169.641 "/>
<polygon style="fill:#FF5440;" points="434.5,169.641 434.5,342.36 342.36,464.5 169.64,464.5 47.5,342.36 47.5,169.641 
	169.64,47.501 342.36,47.501 "/>
<path d="M509.803,147.766L364.235,2.197c-1.406-1.406-3.314-2.196-5.303-2.196H153.068c-1.989,0-3.897,0.79-5.303,2.196
	L2.197,147.766C0.79,149.173,0,151.079,0,153.068v205.863c0,1.989,0.79,3.896,2.197,5.304l145.568,145.568
	c1.406,1.406,3.314,2.196,5.303,2.196h205.864c1.989,0,3.897-0.79,5.303-2.196l145.568-145.568c1.407-1.407,2.197-3.314,2.197-5.304
	V153.068C512,151.079,511.21,149.173,509.803,147.766z M497,355.826L355.826,497H156.174L15,355.826v-199.65L156.174,15.001h199.651
	L497,156.176V355.826z"/>
<path d="M342.364,40.001H169.636c-1.989,0-3.897,0.79-5.303,2.196L42.197,164.333C40.79,165.741,40,167.648,40,169.637v172.727
	c0,1.989,0.79,3.896,2.197,5.304l50.462,50.461c2.929,2.928,7.678,2.928,10.606,0c2.929-2.93,2.929-7.678,0-10.607L55,339.258
	V172.743L172.743,55.001h166.515L457,172.743v166.514L339.257,457H172.743l-48.265-48.266c-2.929-2.928-7.678-2.928-10.606,0
	c-2.929,2.93-2.929,7.678,0,10.607l50.462,50.462c1.406,1.406,3.314,2.196,5.303,2.196h172.728c1.989,0,3.897-0.79,5.303-2.196
	l122.136-122.137c1.407-1.407,2.197-3.314,2.197-5.304V169.637c0-1.989-0.79-3.896-2.197-5.304L347.667,42.197
	C346.261,40.791,344.353,40.001,342.364,40.001z"/>
<g>
</g>
<g>
</g>
<g>
</g>
<g>
</g>
<g>
</g>
<g>
</g>
<g>
</g>
<g>
</g>
<g>
</g>
<g>
</g>
<g>
</g>
<g>
</g>
<g>
</g>
<g>
</g>
<g>
</g>
</svg>
